<?xml version="1.0" encoding="utf-8"?>
<!--
  ~ These materials contain confidential information and
  ~ trade secrets of Dynatrace LLC.  You shall
  ~ maintain the materials as confidential and shall not
  ~ disclose its contents to any third party except as may
  ~ be required by law or regulation.  Use, disclosure,
  ~ or reproduction is prohibited without the prior express
  ~ written permission of Dynatrace LLC.
  ~
  ~ All Dynatrace products listed within the materials are
  ~ trademarks of Dynatrace LLC.  All other company
  ~ or product names are trademarks of their respective owners.
  ~
  ~ Copyright (c) 2016 Dynatrace LLC.  All rights reserved.
  -->

<!-- Generator: Adobe Illustrator 19.2.1, SVG Export Plug-In . SVG Version: 6.00 Build 0)  -->
<svg version="1.1" id="Layer_1" xmlns="http://www.w3.org/2000/svg" xmlns:xlink="http://www.w3.org/1999/xlink" x="0px" y="0px"
	 width="340px" height="340px" viewBox="0 0 340 340" style="enable-background:new 0 0 340 340;" xml:space="preserve">
<style type="text/css">
	.st1{fill:#1496FF;}
	.st2{fill:#1284EA;}
	.st3{fill:#B4DC00;}
	.st4{fill:#6F2DA8;}
	.st5{fill:#591F91;}
	.st6{fill:#73BE28;}
</style>
<g>
	<path class="st1" d="M117,36.7c-4,21.8-9.2,53.9-12,86.6c-4.8,57.6-1.8,96.2-1.8,96.2l-81.1,77.1c0,0-6.2-43.3-9.4-92
		c-1.9-30-2.5-56.7-2.7-72.7c0-1,0.5-1.9,0.5-2.7c0-1,1.4-11.8,11.9-21.8C34,96.4,118.1,30.3,117,36.7z"/>
	<path class="st2" d="M117,36.7c-4,21.8-9.2,53.9-12,86.6c0,0-89.8-10.7-94.9,10.9c0-1,1.5-14.3,12-24.3
		C33.7,98.8,118.1,30.3,117,36.7z"/>
	<path class="st3" d="M10,129.2c0,1.5,0,3.2,0,5c1-4,2.4-6.7,5.7-10.9c6.7-8.5,17.4-10.7,21.8-11.2c21.9-2.9,54.3-6.4,87.1-7.4
		c57.8-1.8,96,3,96,3l81.1-77.2c0,0-42.5-8.1-91-13.8C179,13,151.1,11,135.5,10.1c-1-0.1-12.3-1.4-22.8,8.6
		c-11.6,11-69.6,66-92.9,88.2C9.2,116.9,10,128.1,10,129.2z"/>
	<path class="st4" d="M298.7,227.7c-21.9,2.9-54.3,6.6-87.1,7.7c-57.8,1.9-96.2-2.9-96.2-2.9l-81.1,77.1c0,0,42.9,8.4,91.4,13.9
		c29.6,3.4,56,5.3,72.1,6.2c1.1,0.1,3-0.9,4-0.9c1,0.1,12.4-2,22.9-12.1C236.3,305.8,305.1,226.8,298.7,227.7z"/>
	<path class="st5" d="M298.7,227.7c-21.9,2.9-54.3,6.6-87.1,7.7c0,0,6.3,90.2-15.6,94.3c1,0.1,15.9-0.7,26.4-10.7
		C234,307.9,305.1,226.8,298.7,227.7z"/>
	<path class="st6" d="M201,329.9c-1.5-0.1-3.2-0.2-5-0.3c4-0.8,6.8-2.1,11.1-5.2c8.8-6.3,11.5-16.9,12.3-21.2
		c4-21.8,9.1-54,11.7-86.6c4.6-57.6,1.7-96.1,1.7-96.1L314,43.4c0,0,6,42.9,9.3,91.6c2.1,31.8,2.7,59.9,2.9,75.5
		c0,1,0.8,12.3-9.7,22.4c-11.5,11-69.4,66.2-92.7,88.4C213.3,331.3,202.1,330,201,329.9z"/>
</g>
</svg>