<?xml version="1.0" encoding="utf-8"?>
<!-- Generator: Adobe Illustrator 19.2.1, SVG Export Plug-In . SVG Version: 6.00 Build 0)  -->
<svg version="1.1" id="Layer_1" xmlns="http://www.w3.org/2000/svg" xmlns:xlink="http://www.w3.org/1999/xlink" x="0px" y="0px"
	 width="2898px" height="340px" viewBox="0 0 2898 340" style="enable-background:new 0 0 2898 340;" xml:space="preserve">
<style type="text/css">
	.st0{fill:#FFFFFF;}
	.st1{fill:#1496FF;}
	.st2{fill:#1284EA;}
	.st3{fill:#B4DC00;}
	.st4{fill:#6F2DA8;}
	.st5{fill:#591F91;}
	.st6{fill:#73BE28;}
</style>
<g id="Layer_1_1_">
	<path class="st0" d="M2338.2,270V123c0.1-10.4,2.2-19.4,5.8-25.1c7.2-11.5,22.9-15.9,34.7-15.9h45.5V70h-45.5
		c-15.2,0-35.9,3.4-46.6,20.4c-5.8,9.2-7.8,21.3-7.9,32.5V270H2338.2z"/>
	<path class="st0" d="M2294.2,82V70l0,0h-58c-32.1,0-51.5,9.6-63.5,21.2c-18.5,18-18.5,43.8-18.5,46.5c0,3.2,0,61.3,0,64.5
		c0,2.7,0,28.6,18.5,46.5c12,11.6,31.4,21.2,63.5,21.2h58v-12h-58c-23.9,0-41.9-6.8-53.7-18.3c-13.5-13.2-14.2-32.7-14.2-36.5v-66.5
		c0-3.8,0.7-23.3,14.2-36.5c11.8-11.5,29.9-18.3,53.7-18.3L2294.2,82z"/>
	<path class="st0" d="M2590.2,70v132.2c0,3.8-0.7,23.4-14.1,36.5c-11.3,11-28.3,16.8-50.7,17.2h-2.4c-22.4-0.4-39.4-6.2-50.7-17.2
		c-13.4-13.2-14.1-32.7-14.1-36.5V70h-14c0,0,0,129.7,0,132.2c0,2.7,0,28.6,18.3,46.5c11.6,11.3,30.1,20.7,60.4,21.2h2.6
		c30.2-0.5,48.8-9.9,60.3-21.2c18.3-18,18.3-43.8,18.3-46.5c0-2.6,0-132.2,0-132.2H2590.2z"/>
	<path class="st0" d="M2821.6,70c0,0-1.6,0-2.8,0s-2.8,0-2.8,0c-26.2,0.7-48.8,15.8-59.7,37.3c-10.9-21.5-33.5-36.6-59.7-37.3
		c0,0-1.6,0-2.8,0s-2.8,0-2.8,0c-36.9,1-66.7,30.5-66.7,66.6V270h14V136.6c0-13.7,5.5-26.6,15.4-36.5c10-10,23.4-15.7,37.7-16.1
		c0.4,0,1.6,0,2.4,0s2,0,2.4,0c14.3,0.4,27.7,6.1,37.7,16.1c9.9,9.9,15.4,22.8,15.4,36.5V270h14V136.6c0-13.7,5.5-26.6,15.4-36.5
		c10-10,23.4-15.7,37.7-16.1c0.4,0,1.6,0,2.4,0s2,0,2.4,0c14.3,0.4,27.7,6.1,37.7,16.1c9.9,9.9,15.4,22.8,15.4,36.5V270h14V136.6
		C2888.2,100.5,2858.5,71.1,2821.6,70z"/>
	<path class="st0" d="M1330.2,92.7h-42.1c-11.9,0-20.2,2.4-25.2,7.2c-5,4.9-7.5,13.2-7.5,24.7V270h-25.2V122.9
		c0.1-11.2,2.1-23.2,7.9-32.5c10.7-17.1,31.4-20.4,46.6-20.4h45.5L1330.2,92.7L1330.2,92.7z"/>
	<path class="st0" d="M1168.1,247.3c-11.9,0-20.1-2.4-25.1-7.2c-5-4.9-7.5-12.8-7.5-24.2V92.7h52.8V70h-52.8V10h-25.2v207.1
		c0.1,11.2,2.1,23.2,7.9,32.5c10.7,17.1,31.4,20.4,46.6,20.4h45.5v-22.7H1168.1z"/>
	<path class="st0" d="M509,10v60h-52.8c-32.1,0-51.5,9.6-63.5,21.2c-18.5,18-18.5,43.8-18.5,46.5c0,3.2,0,61.3,0,64.5
		c0,2.7,0,28.6,18.5,46.5c12,11.6,31.4,21.2,63.5,21.2h23.5c15.2,0,35.9-3.4,46.6-20.4c5.8-9.2,7.8-21.3,7.9-32.5V10H509z
		 M501.5,240.1c-5,4.9-13.3,7.2-25.2,7.2h-22.7c-20.8,0-33.7-5.9-41.7-13.7c-9.3-9.1-12.5-21.2-12.5-30.6v-66
		c0-9.4,3.2-21.5,12.5-30.6c8-7.8,20.9-13.7,41.7-13.7h55.3v123.1C509,227.2,506.6,235.2,501.5,240.1z"/>
	<path class="st0" d="M1558,106.4c8-7.8,20.9-13.7,41.7-13.7h60.6V70h-58c-32.1,0-51.5,9.6-63.5,21.2c-18.5,18-18.5,43.8-18.5,46.5
		c0,1.8,0,62.7,0,64.5c0,2.7,0,28.6,18.5,46.5c12,11.6,31.4,21.2,63.5,21.2h58v-22.7h-60.6c-20.8,0-33.7-5.9-41.7-13.7
		c-9.3-9.1-12.5-21.2-12.5-30.6v-66C1545.5,127.6,1548.6,115.5,1558,106.4z"/>
	<path class="st0" d="M1084.2,137.8c0-2.7,0-28.6-18.5-46.5c-12-11.6-31.4-21.2-63.5-21.2h-56v22.7h58.6c20.8,0,33.7,5.9,41.7,13.7
		c9.3,9.1,12.5,21.2,12.5,30.6v19.2h-80.3c-15.2,0-35.9,3.4-46.6,20.4c-5.8,9.2-7.8,21.3-7.9,32.5v8c0.1,11.2,2.1,23.2,7.9,32.5
		c10.7,17.1,31.4,20.4,46.6,20.4h51c15.2,0,35.9-3.4,46.6-20.4c5.8-9.2,7.8-21.3,7.9-32.5C1084.2,217.1,1084.2,150.9,1084.2,137.8z
		 M1051.6,240.1c-5,4.9-13.3,7.2-25.2,7.2h-44.3c-11.9,0-20.2-2.4-25.2-7.2c-5-4.9-7.5-12.8-7.5-24.2v-5.5c0-11.4,2.5-19.3,7.5-24.2
		s13.3-7.2,25.2-7.2h76.9v36.9C1059,227.2,1056.6,235.2,1051.6,240.1z"/>
	<path class="st0" d="M1500.2,137.8c0-2.7,0-28.6-18.5-46.5c-12-11.6-31.4-21.2-63.5-21.2h-56v22.7h58.6c20.8,0,33.7,5.9,41.7,13.7
		c9.3,9.1,12.5,21.2,12.5,30.6v19.2h-80.3c-15.2,0-35.9,3.4-46.6,20.4c-5.8,9.2-7.8,21.3-7.9,32.5v8c0.1,11.2,2.1,23.2,7.9,32.5
		c10.7,17.1,31.4,20.4,46.6,20.4h51c15.2,0,35.9-3.4,46.6-20.4c5.8-9.2,7.8-21.3,7.9-32.5C1500.2,217.1,1500.2,150.9,1500.2,137.8z
		 M1467.6,240.1c-5,4.9-13.3,7.2-25.2,7.2h-44.3c-11.9,0-20.2-2.4-25.2-7.2c-5-4.9-7.5-12.8-7.5-24.2v-5.5c0-11.4,2.5-19.3,7.5-24.2
		s13.3-7.2,25.2-7.2h76.9v36.9C1475,227.2,1472.6,235.2,1467.6,240.1z"/>
	<polygon class="st0" points="734.2,70 708,70 644.3,235.8 580.5,70 554.2,70 631.1,270 608,330 634.3,330 	"/>
	<path class="st0" d="M904.2,137.8c0-2.7,0-28.6-18.3-46.5c-11.6-11.3-30.1-20.7-60.4-21.2h-2.6c-30.2,0.5-48.8,9.9-60.3,21.2
		c-18.3,18-18.3,43.8-18.3,46.5c0,3.3,0,122,0,132.2h25.2V137c0-9.4,3-21.5,12.3-30.6c7.7-7.6,22.7-13.4,42.6-13.7
		c19.9,0.2,34.8,6.1,42.6,13.7c9.3,9.1,12.3,21.2,12.3,30.6v133h25.2C904.2,259.7,904.2,141.1,904.2,137.8z"/>
	<path class="st0" d="M1815.9,91.2c-11.6-11.3-30.1-20.7-60.4-21.2h-2.6c-30.2,0.5-48.8,9.9-60.3,21.2c-18.3,18-18.3,43.8-18.3,46.5
		v64.5c0,2.7,0,28.6,18.3,46.5c11.6,11.3,30.1,20.7,60.3,21.2h59.3v-22.7h-58c-19.9-0.2-34.8-6.1-42.6-13.7
		c-9.3-9.1-12.3-21.2-12.3-30.6v-23.6h134.8v-41.6C1834.2,135,1834.2,109.2,1815.9,91.2z M1699.4,156.7V137c0-9.4,3-21.5,12.3-30.6
		c7.7-7.6,22.7-13.4,42.6-13.7c19.9,0.2,34.8,6.1,42.6,13.7c9.3,9.1,12.3,21.2,12.3,30.6v19.7H1699.4z"/>
	<g>
		<path class="st1" d="M117,36.7c-4,21.8-9.2,53.9-12,86.6c-4.8,57.6-1.8,96.2-1.8,96.2l-81.1,77.1c0,0-6.2-43.3-9.4-92
			c-1.9-30-2.5-56.7-2.7-72.7c0-1,0.5-1.9,0.5-2.7c0-1,1.4-11.8,11.9-21.8C34,96.4,118.1,30.3,117,36.7z"/>
		<path class="st2" d="M117,36.7c-4,21.8-9.2,53.9-12,86.6c0,0-89.8-10.7-94.9,10.9c0-1,1.5-14.3,12-24.3
			C33.7,98.8,118.1,30.3,117,36.7z"/>
		<path class="st3" d="M10,129.2c0,1.5,0,3.2,0,5c1-4,2.4-6.7,5.7-10.9c6.7-8.5,17.4-10.7,21.8-11.2c21.9-2.9,54.3-6.4,87.1-7.4
			c57.8-1.8,96,3,96,3l81.1-77.2c0,0-42.5-8.1-91-13.8C179,13,151.1,11,135.5,10.1c-1-0.1-12.3-1.4-22.8,8.6
			c-11.6,11-69.6,66-92.9,88.2C9.2,116.9,10,128.1,10,129.2z"/>
		<path class="st4" d="M298.7,227.7c-21.9,2.9-54.3,6.6-87.1,7.7c-57.8,1.9-96.2-2.9-96.2-2.9l-81.1,77.1c0,0,42.9,8.4,91.4,13.9
			c29.6,3.4,56,5.3,72.1,6.2c1.1,0.1,3-0.9,4-0.9c1,0.1,12.4-2,22.9-12.1C236.3,305.8,305.1,226.8,298.7,227.7z"/>
		<path class="st5" d="M298.7,227.7c-21.9,2.9-54.3,6.6-87.1,7.7c0,0,6.3,90.2-15.6,94.3c1,0.1,15.9-0.7,26.4-10.7
			C234,307.9,305.1,226.8,298.7,227.7z"/>
		<path class="st6" d="M201,329.9c-1.5-0.1-3.2-0.2-5-0.3c4-0.8,6.8-2.1,11.1-5.2c8.8-6.3,11.5-16.9,12.3-21.2
			c4-21.8,9.1-54,11.7-86.6c4.6-57.6,1.7-96.1,1.7-96.1L314,43.4c0,0,6,42.9,9.3,91.6c2.1,31.8,2.7,59.9,2.9,75.5
			c0,1,0.8,12.3-9.7,22.4c-11.5,11-69.4,66.2-92.7,88.4C213.3,331.3,202.1,330,201,329.9z"/>
	</g>
	<path class="st0" d="M1974.2,137.8c0,3.2,0,61.3,0,64.5c0,2.7,0,28.6,18.5,46.5c12,11.6,31.4,21.2,63.5,21.2h23.5
		c15.2,0,35.9-3.4,46.6-20.4c5.8-9.2,7.8-21.3,7.9-32.5V10h-14v60h-64c-32.1,0-51.5,9.6-63.5,21.2
		C1974.2,109.2,1974.2,135,1974.2,137.8z M1988.2,136.8c0-3.8,0.7-23.3,14.2-36.5c11.8-11.5,29.9-18.3,53.7-18.3h64v136
		c-0.1,10.4-2.2,19.4-5.8,25.1c-7.2,11.5-22.9,14.9-34.7,14.9h-23.5c-23.9,0-41.9-6.8-53.7-18.3c-13.5-13.2-14.2-32.7-14.2-36.5
		V136.8z"/>
</g>
</svg>
